<?xml version="1.0" encoding="utf-8"?>
<!-- Generator: Adobe Illustrator 19.0.1, SVG Export Plug-In . SVG Version: 6.00 Build 0)  -->
<!DOCTYPE svg PUBLIC "-//W3C//DTD SVG 1.1//EN" "http://www.w3.org/Graphics/SVG/1.1/DTD/svg11.dtd">
<svg version="1.1" id="Layer_1" xmlns="http://www.w3.org/2000/svg" xmlns:xlink="http://www.w3.org/1999/xlink" x="0px" y="0px"
	 viewBox="0 0 400 177.4" enable-background="new 0 0 400 177.4" xml:space="preserve">
<g>
	<path fill-rule="evenodd" clip-rule="evenodd" fill="#000000" d="M9.3,96.4c0.9-0.2,1.3-0.9,1.7-1.7c12.6,5.7,14,22.5,24.9,29.8
		c4.9,1.5,8.6,4.2,11.6,7.5c15.7,4.3,33.5,3.9,45.6-3.3c-1.5-5.1,4.2-7.9,5-12.4c0.7-3.7-1.3-7.7-0.8-11.6c0.4-3.5,3.6-6.9,4.1-10.8
		c0.4-3.1-1.2-6.7-0.8-9.1c1.3-7.7,10-11.2,9.1-19.1c7.9-8.2,14.3-17.7,20.7-27.4c12.8-8.2,23.8-18.2,37.3-25.7
		c1.9-0.6,4.7-0.6,6.6,0.8c4.2-2.1,4.2-4.3,9.1-5c4.2-0.6,9.9,2.5,9.9,2.5c3.6-0.4,5.9-5.4,9.1-5.8c4.3-0.6,7.7,0.5,10.8,3.3
		c3.5-4,16.5-3.6,18.2,1.7c5.7-4.1,17.9-2.6,21.6,2.5c2.9-1.6,4.8,0,8.3,0c3.6,4.1,8.6,3.8,14.1,5.8c3.9,1.4,5.7,5.7,9.9,8.3
		c2.6,1.6,6.5,1.4,9.1,3.3c2.7,2,4.3,6.7,7.5,9.1c2.1,1.6,4.9,1.7,6.6,3.3c6.3,5.8,10.1,15.2,19.1,18.2c0.4,2.9,2.2,4.4,2.5,7.5
		c4.5,0.1,3.5,0.6,7.5,0.8c0.1-23,18.3-40.5,41.4-32.3c1.3,8-8.8,11.6-10.8,19.1c9.1,2.7,14.7-5.2,22.4-6.6
		c-4.1,17.7-16.8,26.9-32.3,33.2c-1.4,9.7,4.5,17.7,5.8,27.4c1.2,8.8-1.7,17.2-2.5,26.5c-1,12.9,1.3,26.4-3.3,37.3
		c-15.6,0.5-23.3-13.6-29.8-24.9c-12.7-3.1-16.6-14.9-26.5-20.7c-1,15.1-16.7,17.3-29.8,15.7c8.9-0.5,19,7.4,14.9,17.4
		c-0.9,1-3.8,0.3-5-0.8c-2.6,2,4.5,4.3,1.7,6.6c-10.1-3.1-22.7,0.4-32.3-5.8c-0.6-12.6-3.8-22.7-10.8-29c-9.3-4.5-24.3-3.3-32.3-9.1
		c-0.8-3.6,0.9-4.6,1.7-6.6c-5.2-1.3-2.8,4.9-4.1,7.5c-6.7,14.1-30.1,6.3-47.2,9.9c-1.4,1.4-0.7,4.9-0.8,7.5
		c10.4,1.5,15.9,7.9,19.1,16.6c-1.1,3.9-6,4-5.8,9.1c-10.1,1.6-20-3.6-33.2-1.7c-6.8-3.8-1.7-15.3-5-21.6
		c-9.7-0.5-20.4-5.8-30.7-3.3c-6.4,1.6-11.2,7.8-14.9,9.1c-10.8,4-26.4,2-34-0.8c-9.5-3.5-20.3-11.3-27.4-19.1
		c-7.6-8.3-11.3-19.6-16.6-29.8C9.3,98.6,9.3,97.5,9.3,96.4z"/>
</g>
</svg>
